<svg width="30" height="30" viewBox="0 0 30 30" fill="none" xmlns="http://www.w3.org/2000/svg">
<path d="M29.5972 14.0222L26.0167 10.4418V5.36028C26.0167 4.60287 25.3971 3.98318 24.6396 3.98318H19.5582L15.9777 0.402724C15.8503 0.275062 15.699 0.17378 15.5324 0.104675C15.3658 0.0355704 15.1872 0 15.0068 0C14.8265 0 14.6479 0.0355704 14.4813 0.104675C14.3147 0.17378 14.1634 0.275062 14.036 0.402724L10.4418 3.98318H5.36028C4.60287 3.98318 3.98318 4.60287 3.98318 5.36028V10.4418L0.402724 14.0222C0.275062 14.1496 0.17378 14.3009 0.104675 14.4675C0.0355704 14.6341 0 14.8127 0 14.9931C0 15.1734 0.0355704 15.352 0.104675 15.5186C0.17378 15.6852 0.275062 15.8365 0.402724 15.9639L3.98318 19.5444V24.6396C3.98318 25.3971 4.60287 26.0167 5.36028 26.0167H10.4418L14.0222 29.5972C14.5593 30.1343 15.4269 30.1343 15.9639 29.5972L19.5444 26.0167H24.6396C25.3971 26.0167 26.0167 25.3971 26.0167 24.6396V19.5582L29.5972 15.9777C30.1343 15.4406 30.1343 14.5593 29.5972 14.0222V14.0222ZM23.1524 16.3495C22.9124 17.7975 22.2908 19.1553 21.3517 20.2832C20.4125 21.4112 19.1898 22.2684 17.8092 22.7668C16.143 23.3589 14.4904 23.3865 12.9894 23.0147C12.4248 22.877 12.3284 22.1196 12.8104 21.7753C14.9724 20.288 16.3771 17.8092 16.3771 15C16.3771 12.1907 14.9724 9.71191 12.8241 8.22464C12.3422 7.89414 12.4248 7.13673 13.0032 6.98525C14.5042 6.61344 16.1567 6.64098 17.823 7.23313C20.6047 8.22464 22.6979 10.731 23.1662 13.6504C23.235 14.1048 23.2625 14.5593 23.2625 15C23.2488 15.4406 23.2212 15.8951 23.1524 16.3495V16.3495Z" fill="#8E92B7"/>
</svg>
