<svg width="29" height="43" viewBox="0 0 29 43" fill="none" xmlns="http://www.w3.org/2000/svg">
<path fill-rule="evenodd" clip-rule="evenodd" d="M16.8265 7.5691C15.9607 6.9534 14.8275 6.64555 13.4268 6.64555C12.0262 6.64555 10.8166 7.1274 9.79796 8.0911C8.8048 9.05481 8.11722 10.2193 7.73523 11.5845C7.35325 12.9498 7.16225 14.489 7.16225 16.2023C7.16225 22.8411 9.35231 26.1606 13.7324 26.1606C16.0753 26.1606 17.7306 25.1433 18.6983 23.1088C19.5386 21.3153 19.9588 19.1202 19.9588 16.5235C19.9588 14.1946 19.5641 12.053 18.7747 10.0988C18.3672 9.02804 17.7178 8.1848 16.8265 7.5691ZM4.6123 3.69875C7.28966 1.24251 10.4674 0 14.038 0C17.7028 0 20.8675 1.39148 23.3684 4.15182C26.0062 7.06339 27.0829 11.3285 27.0829 16.4031C27.0829 20.2012 26.3126 23.5564 24.5901 26.2934C22.794 29.1892 19.9187 30.7631 17.391 31.6997C15.8567 32.2681 14.2661 32.3754 13.1469 32.3669C12.5702 32.3625 12.0779 32.3267 11.7245 32.2913C11.5471 32.2736 11.4027 32.2557 11.298 32.2415C11.2456 32.2344 11.203 32.2282 11.1709 32.2234L11.148 32.2199C7.59702 31.7286 4.68407 30.1215 2.71989 27.2413C0.805728 24.4344 0 20.7198 0 16.4031C0 13.7026 0.376099 11.2275 1.19339 9.0294C1.98369 6.87769 3.09687 5.04999 4.6123 3.69875Z" fill="#8E92B7"/>
<path d="M22.1948 30.2218L24.0035 31.5556C22.7187 32.915 21.6073 34.2572 22.6446 35.3934L24.3706 34.0799L27.8464 38.6475L22.647 42.6041L19.3984 38.3351C16.8185 34.9411 19.9574 32.1166 22.1948 30.2218Z" fill="#8E92B7"/>
</svg>
