<svg width="33" height="33" viewBox="0 0 33 33" fill="none" xmlns="http://www.w3.org/2000/svg">
<path d="M16.5 33C25.6127 33 33 25.6127 33 16.5C33 7.3873 25.6127 0 16.5 0C7.3873 0 0 7.3873 0 16.5C0 25.6127 7.3873 33 16.5 33ZM17.7629 25.2334L17.0539 21.9684C19.1313 21.5085 21.0415 20.9105 20.8869 18.5907H18.4457V9.90157H25.7994V18.0227C25.7968 24.4767 21.0583 25.0018 17.7629 25.2334ZM7.91161 25.2334L7.20063 21.9684C9.278 21.5085 11.1883 20.9105 11.0336 18.5907H8.5924V9.90157H15.9461V18.0227C15.9435 24.4767 11.2071 25.0018 7.91161 25.2334Z" fill="#E5E5E5"/>
</svg>
