<svg width="33" height="27" viewBox="0 0 33 27" fill="none" xmlns="http://www.w3.org/2000/svg">
<path d="M33 3.20338C31.7638 3.7547 30.4526 4.11648 29.1099 4.27667C30.5235 3.42525 31.5815 2.08566 32.0866 0.507445C30.7578 1.30099 29.3039 1.85998 27.7879 2.16025C26.7688 1.06338 25.4183 0.336008 23.9463 0.0911825C22.4742 -0.153643 20.963 0.0977887 19.6475 0.806402C18.332 1.51501 17.2859 2.64112 16.6718 4.00972C16.0577 5.37831 15.91 6.91275 16.2515 8.37455C13.5597 8.23919 10.9262 7.53555 8.52212 6.30931C6.11802 5.08308 3.99703 3.36167 2.29686 1.25684C1.69488 2.29636 1.37855 3.47835 1.38032 4.68154C1.37962 5.80349 1.65429 6.90824 2.17993 7.89763C2.70557 8.88702 3.46591 9.73041 4.39338 10.3528C3.31769 10.3191 2.26564 10.0267 1.32511 9.50024V9.58598C1.32511 12.8884 3.65983 15.6415 6.75649 16.2687C5.75902 16.5416 4.71273 16.5812 3.69769 16.3846C4.13034 17.7386 4.97272 18.9226 6.10697 19.7709C7.24123 20.6193 8.6106 21.0895 10.0235 21.1159C7.62564 23.0109 4.66407 24.0387 1.61537 24.0341C1.06798 24.0341 0.530044 24.0024 0 23.9389C3.0957 25.941 6.6987 27.0037 10.3785 27C22.8298 27 29.6399 16.6164 29.6399 7.61404C29.6399 7.31714 29.6336 7.02341 29.621 6.73127C30.9462 5.76676 32.09 4.57209 32.9984 3.20338H33Z" fill="#8E92B7"/>
</svg>
